<svg xmlns="http://www.w3.org/2000/svg" width="24" height="24" viewBox="0 0 24 24" fill="none" stroke="#FFFFFF" stroke-width="2" stroke-linecap="round" stroke-linejoin="round">
  <circle cx="12" cy="12" r="3"/>
  <path d="M19.4 15a2 2 0 0 0 .38 2.21l.06.06a2 2 0 1 1-2.83 2.83l-.06-.06a2 2 0 0 0-2.21-.38 2 2 0 0 0-1.18 1.82v.12a2 2 0 1 1-4 0v-.12a2 2 0 0 0-1.18-1.82 2 2 0 0 0-2.21.38l-.06.06a2 2 0 1 1-2.83-2.83l.06-.06A2 2 0 0 0 4.6 15a2 2 0 0 0-1.82-1.18h-.12a2 2 0 1 1 0-4h.12A2 2 0 0 0 4.6 9a2 2 0 0 0-.38-2.21l-.06-.06a2 2 0 1 1 2.83-2.83l.06.06A2 2 0 0 0 9 4.6a2 2 0 0 0 1.18-1.82V2.66a2 2 0 1 1 4 0v.12A2 2 0 0 0 15 4.6a2 2 0 0 0 2.21-.38l.06-.06a2 2 0 1 1 2.83 2.83l-.06.06A2 2 0 0 0 19.4 9a2 2 0 0 0 1.82 1.18h.12a2 2 0 1 1 0 4h-.12A2 2 0 0 0 19.4 15z"/>
</svg>
